PathFileType	4	(X/Y/Z)	Kaydara	
DataRate	CameraRate	NumFrames	NumMarkers	Units	OrigDataRate	OrigDataStartFrame	OrigNumFrames	
240.00	240.00	4	72	mm	240.00	178	355	
Frame#	Time	Hips			RightUpLeg			RightLeg			RightFoot			RightFoot_End			LeftUpLeg			LeftLeg			LeftFoot			LeftFoot_End			Spine			Spine1			Spine2			Spine3			Neck			Head			Head_End			RightShoulder			RightArm			RightForeArm			RightHand			RightHandThumb1			RightHandThumb2			RightHandThumb3			RightHandThumb3_End			RightInHandIndex			RightHandIndex1			RightHandIndex2			RightHandIndex3			RightHandIndex3_End			RightInHandMiddle			RightHandMiddle1			RightHandMiddle2			RightHandMiddle3			RightHandMiddle3_End			RightInHandRing			RightHandRing1			RightHandRing2			RightHandRing3			RightHandRing3_End			RightInHandPinky			RightHandPinky1			RightHandPinky2			RightHandPinky3			RightHandPinky3_End			LeftShoulder			LeftArm			LeftForeArm			LeftHand			LeftHandThumb1			LeftHandThumb2			LeftHandThumb3			LeftHandThumb3_End			LeftInHandIndex			LeftHandIndex1			LeftHandIndex2			LeftHandIndex3			LeftHandIndex3_End			LeftInHandMiddle			LeftHandMiddle1			LeftHandMiddle2			LeftHandMiddle3			LeftHandMiddle3_End			LeftInHandRing			LeftHandRing1			LeftHandRing2			LeftHandRing3			LeftHandRing3_End			LeftInHandPinky			LeftHandPinky1			LeftHandPinky2			LeftHandPinky3			LeftHandPinky3_End			
		X1	Y1	Z1	X2	Y2	Z2	X3	Y3	Z3	X4	Y4	Z4	X5	Y5	Z5	X6	Y6	Z6	X7	Y7	Z7	X8	Y8	Z8	X9	Y9	Z9	X10	Y10	Z10	X11	Y11	Z11	X12	Y12	Z12	X13	Y13	Z13	X14	Y14	Z14	X15	Y15	Z15	X16	Y16	Z16	X17	Y17	Z17	X18	Y18	Z18	X19	Y19	Z19	X20	Y20	Z20	X21	Y21	Z21	X22	Y22	Z22	X23	Y23	Z23	X24	Y24	Z24	X25	Y25	Z25	X26	Y26	Z26	X27	Y27	Z27	X28	Y28	Z28	X29	Y29	Z29	X30	Y30	Z30	X31	Y31	Z31	X32	Y32	Z32	X33	Y33	Z33	X34	Y34	Z34	X35	Y35	Z35	X36	Y36	Z36	X37	Y37	Z37	X38	Y38	Z38	X39	Y39	Z39	X40	Y40	Z40	X41	Y41	Z41	X42	Y42	Z42	X43	Y43	Z43	X44	Y44	Z44	X45	Y45	Z45	X46	Y46	Z46	X47	Y47	Z47	X48	Y48	Z48	X49	Y49	Z49	X50	Y50	Z50	X51	Y51	Z51	X52	Y52	Z52	X53	Y53	Z53	X54	Y54	Z54	X55	Y55	Z55	X56	Y56	Z56	X57	Y57	Z57	X58	Y58	Z58	X59	Y59	Z59	X60	Y60	Z60	X61	Y61	Z61	X62	Y62	Z62	X63	Y63	Z63	X64	Y64	Z64	X65	Y65	Z65	X66	Y66	Z66	X67	Y67	Z67	X68	Y68	Z68	X69	Y69	Z69	X70	Y70	Z70	X71	Y71	Z71	X72	Y72	Z72	

178	0.738	-78.98710000000028	906.651	56.2195	-1.0564500000000407	891.4927300000002	6.822900000000001	-84.72109999999975	490.56442	-80.25532999999999	-84.23621999999978	109.02009	-158.12177999999997	-158.72515999999996	33.84698	1.0605399999999996	-149.1234599999998	893.17148	117.59493	-208.33492999999999	489.79638000000006	213.77883000000003	-243.22651000000042	58.46029999999999	302.093	-375.19542	-17.21718	186.35305	-116.26704999999947	1034.4886100000003	3.83643	-160.11427000000003	1105.3400200000003	-46.17897	-210.17463000000043	1174.0490000000002	-100.98300999999998	-264.1096099999995	1231.0725399999997	-158.29426	-322.3849100000007	1291.9993000000002	-218.84026999999998	-376.79833000000053	1347.13731	-273.20332	-496.57032999999956	1437.91998	-326.62078999999994	-278.37805000000026	1277.9019699999997	-216.59256	-205.05777000000035	1297.5593700000002	-318.42976	-138.10279999999966	1052.19978	-394.17148	-24.167709999999715	1033.00154	-626.6544900000001	-6.323560000000725	1066.75646	-638.44913	-8.726529999999912	1089.7890799999998	-667.08444	-10.549519999999575	1102.0801199999999	-689.4475199999999	-12.197220000000016	1109.11954	-710.1621399999999	-2.8746299999993425	1056.7839999999999	-647.57038	18.94326000000001	1077.62596	-691.2945199999999	21.58488000000034	1090.15701	-725.14682	14.771969999999783	1098.3011699999997	-742.70724	3.429619999999886	1105.2806099999998	-754.8908899999999	-4.636919999999918	1045.7684200000003	-652.7972400000001	15.693940000000111	1060.1392800000003	-698.2706900000001	18.257510000000366	1072.2895900000003	-735.7624099999999	9.884890000000269	1081.38411	-757.2133499999999	-2.600120000000061	1088.66546	-770.67325	-6.308030000000144	1037.4537299999997	-655.364	10.84425999999985	1043.11418	-698.31546	12.719170000000304	1052.1245700000004	-731.4861599999999	4.452180000000226	1060.0579599999999	-752.4389700000002	-7.377360000000408	1066.50668	-765.21868	-9.895849999999882	1027.26936	-657.1363000000001	4.069899999999507	1026.1880999999998	-697.6034799999998	4.934630000000652	1030.9138299999997	-724.7469000000001	-1.403309999999692	1035.49625	-740.3112900000001	-12.059589999999844	1040.5157199999999	-751.7939300000002	-328.56548999999995	1265.9360600000002	-179.40495999999996	-406.5828499999998	1189.8857400000002	-111.41877	-267.0424699999994	1060.0191199999997	-294.93983	-104.67385000000013	1029.7112000000002	-494.45841999999993	-103.81646	1053.6663899999999	-526.4324000000001	-110.1877999999997	1050.43683	-562.5604099999999	-118.20003999999972	1045.8496499999999	-586.4196199999999	-127.93800999999985	1040.0253300000002	-605.19761	-117.08154000000013	1049.8674	-524.3958800000001	-147.02044999999998	1061.67107	-566.6634100000001	-165.03736000000026	1057.1474799999999	-597.7264399999999	-169.45637999999963	1048.3320499999998	-615.7228800000001	-168.53927000000022	1036.9862299999998	-629.73123	-125.62963000000036	1042.49183	-519.46639	-159.45560999999998	1050.01896	-558.0260299999999	-180.14292000000023	1044.0554300000001	-591.13649	-185.96723999999995	1032.9269099999997	-612.4716	-185.20338000000083	1020.27285	-627.61603	-130.96279999999933	1037.0961899999998	-514.88827	-166.07673000000068	1039.4987499999997	-545.42201	-185.10389000000032	1033.2376799999997	-573.4178000000002	-191.2508399999997	1021.93867	-593.5386700000001	-190.78326000000015	1009.7730799999999	-607.5609600000001	-135.7857899999999	1029.6184600000001	-508.5198100000001	-171.16950999999972	1027.60649	-532.55621	-187.80611000000044	1020.92274	-553.4941299999999	-192.96711999999934	1011.8733000000001	-567.45442	-192.94276999999965	1000.63161	-579.46385
179	0.742	-78.98710000000028	906.651	56.2195	-1.346520000000055	891.2393799999999	6.445960000000001	-85.58196000000044	490.37203999999997	-80.36227	-84.18098000000009	108.83279	-158.24257	-158.68066	33.64346999999999	0.9270599999999991	-148.82866999999987	893.43226	117.98656999999999	-207.97587999999996	490.00081	213.9734	-243.18674999999985	58.543209999999995	301.56433	-375.09360000000015	-17.22998	185.81626000000003	-116.28240000000005	1034.46255	3.78381	-160.1996599999993	1105.3014700000003	-46.18781	-210.3467099999998	1174.0041200000003	-100.9205	-264.3973100000003	1231.0222800000001	-158.12808	-322.79042000000027	1291.93941	-218.57018000000002	-377.3065800000004	1347.0681700000002	-272.8396000000001	-497.11309000000074	1437.82695	-326.22024	-278.82177000000047	1277.69438	-216.51408999999998	-206.07055000000037	1296.60292	-318.89973	-141.5718399999996	1051.09638	-396.27907000000005	-30.61685000000034	1033.14163	-630.2977599999999	-13.281439999999748	1067.0490000000002	-642.40954	-16.367259999999987	1090.0326000000002	-671.0187900000001	-18.67091999999957	1102.28609	-693.3581199999999	-20.723739999999452	1109.2912899999997	-714.0481299999999	-9.890900000000329	1057.10054	-651.5787500000001	11.012119999999413	1078.1032999999998	-695.6713400000001	12.981249999999818	1090.6275800000003	-729.5719100000001	5.805769999999939	1098.6926899999999	-747.0240700000002	-5.799230000000534	1105.5562100000002	-759.02484	-11.637039999999615	1046.06446	-656.76765	7.810239999999794	1060.58109	-702.5799899999998	9.645050000000083	1072.72065	-740.11792	0.8374299999995856	1081.71818	-761.4351399999999	-11.933790000000045	1088.8719100000003	-774.69345	-13.273229999999785	1037.7323999999999	-659.30034	3.1179300000003423	1043.5119700000002	-702.53222	4.364210000000639	1052.5092799999998	-735.73603	-4.318890000000465	1060.34716	-756.5560700000001	-16.415899999999965	1066.6749599999998	-769.14441	-16.79548000000068	1027.51377	-661.00576	-3.487199999999575	1026.52478	-701.69624	-3.1123100000004342	1031.2337500000003	-728.85376	-9.74721000000045	1035.7434600000001	-744.31529	-20.636649999999463	1040.65406	-755.6249500000001	-328.8453499999996	1266.03861	-179.00856	-406.5933700000005	1190.42558	-110.23067	-269.2409200000002	1059.54635	-294.68057	-109.07565000000068	1028.7771900000002	-495.90223000000003	-108.88683000000037	1052.92592	-527.74127	-115.80468000000019	1049.86527	-563.7833699999999	-124.16044000000056	1045.36328	-587.54076	-134.15308000000005	1039.58223	-606.19793	-122.0917900000004	1049.02284	-525.51926	-152.77363999999943	1060.86711	-567.2391000000001	-171.24661000000015	1056.4016200000003	-598.0415800000001	-175.88824000000022	1047.66197	-616.0189299999998	-175.11430000000018	1036.40562	-630.1078600000001	-130.51029999999992	1041.55907	-520.50035	-164.99084999999923	1049.07808	-558.47739	-186.1562299999996	1043.16622	-591.29367	-192.23971999999958	1032.12349	-612.6010100000001	-191.6279400000003	1019.5645800000001	-627.83131	-135.73349000000053	1036.0995599999999	-515.8714200000001	-171.34010000000035	1038.4379299999998	-545.83423	-190.76289999999972	1032.2099200000002	-573.5644499999999	-197.14865999999984	1020.98731	-593.6536799999999	-196.81877000000077	1008.9081699999999	-607.7544	-140.40405999999984	1028.55105	-509.47293	-176.14770999999928	1026.4348700000003	-532.9615900000001	-193.06611000000066	1019.7591900000001	-553.6750799999999	-198.38438000000042	1010.75658	-567.6065899999999	-198.4722700000002	999.58636	-579.6822199999999
180	0.746	-78.98710000000028	906.651	56.2195	-1.6511399999999412	890.9760099999999	6.055490000000001	-86.46167999999943	490.17052000000007	-80.47793	-84.13371000000006	108.63952999999998	-158.37647	-158.64332000000013	33.42949000000001	0.7787400000000009	-148.51897000000008	893.70332	118.39206000000001	-207.5984500000004	490.2135	214.17509	-243.1268399999999	58.631319999999995	301.02088	-374.9714299999996	-17.238909999999997	185.26544	-116.29900999999973	1034.4357000000002	3.7301899999999995	-160.28903999999966	1105.25958	-46.19870999999999	-210.5253700000003	1173.95341	-100.86055	-264.6942800000006	1230.9628	-157.96487	-323.20794000000024	1291.86687	-218.30347	-377.8291099999997	1346.98355	-272.47949	-497.65268000000015	1437.7341300000003	-325.83578	-279.27952000000005	1277.47191	-216.44093	-207.1184599999997	1295.60942	-319.3822	-145.14045999999962	1049.95324	-398.33074999999997	-37.56577000000016	1033.31093	-634.0187799999999	-20.736219999999776	1067.3569600000003	-646.45084	-24.497339999999895	1090.2765599999998	-675.03061	-27.27730000000065	1102.4812500000003	-697.3424300000001	-29.73232999999982	1109.44216	-718.0035599999999	-17.407690000000002	1057.4278599999998	-655.6636500000001	2.5793100000000777	1078.5620699999997	-700.1167	3.879109999999855	1091.0614199999998	-734.05872	-3.6540100000001985	1099.0403899999997	-751.39941	-15.515580000000227	1105.78497	-763.21535	-19.13981000000058	1046.37018	-660.8111000000001	-0.5784000000003289	1061.00337	-706.9526600000002	0.5307999999995445	1073.11231	-744.52891	-8.706000000000131	1082.00427	-765.70834	-21.75684000000001	1089.02705	-778.76279	-20.742629999999735	1038.02068	-663.30745	-5.1161199999996825	1043.89303	-706.8091399999998	-4.495990000000347	1052.85997	-740.03876	-13.589739999999438	1060.5940499999997	-760.7218399999999	-25.94807000000037	1066.79779	-773.1166	-24.200670000000173	1027.76886	-664.9435899999999	-11.554110000000037	1026.8485	-705.8461699999998	-11.667480000000069	1031.52697	-733.0113100000001	-18.595550000000003	1035.9579800000001	-748.36664	-29.712830000000395	1040.75696	-759.50119	-329.13317000000006	1266.13319	-178.61335000000003	-406.5967700000001	1190.97133	-109.02476999999999	-271.4674100000002	1059.0416600000003	-294.36622	-113.82531000000017	1027.6716800000002	-497.47875999999997	-114.3180599999996	1052.0046199999997	-529.17397	-121.78963000000022	1049.10228	-565.11851	-130.49208999999973	1044.67733	-588.76565	-140.74045999999998	1038.9320999999998	-607.29473	-127.45761000000039	1047.9935000000003	-526.76458	-158.88663999999972	1059.8565899999999	-567.91906	-177.81772999999976	1055.43575	-598.44862	-182.6839399999999	1046.7667700000002	-616.4007800000002	-182.05525000000034	1035.5978499999999	-630.5663199999999	-135.7413200000001	1040.4402499999999	-521.6560200000001	-170.8777600000003	1047.92921	-559.0331000000001	-192.52274000000034	1042.0542599999999	-591.5417300000001	-198.86744	1031.09111	-612.8139600000001	-198.40988000000016	1018.6251099999998	-628.12579	-140.8507300000001	1034.9165200000002	-516.9765700000002	-176.94790999999987	1037.1706500000003	-546.3531300000001	-196.76695000000018	1030.9627600000001	-573.8061	-203.39310999999998	1019.8105199999999	-593.85663	-203.20274000000063	1007.8157200000002	-608.03172	-145.36439999999948	1027.29764	-510.54895	-181.46325999999954	1025.0590399999999	-533.47634	-198.6628499999997	1018.3810699999999	-553.95619	-204.13900000000012	1009.4208899999999	-567.85385	-204.3404099999998	998.3202400000001	-579.9921200000001
181	0.75	-78.98710000000028	906.651	56.2195	-1.971440000000257	890.6980299999999	5.65197	-87.37554999999975	489.9608	-80.61339999999998	-84.11196000000018	108.44062	-158.53134	-158.63223000000016	33.20046000000001	0.6046300000000002	-148.1941399999996	893.9894199999999	118.81199000000001	-207.20523000000048	490.4389	214.38119000000003	-243.04893000000084	58.72758999999999	300.45214	-374.83114000000023	-17.24102	184.69019	-116.31278999999995	1034.4073	3.67089	-160.3748800000003	1105.2136899999998	-46.219269999999995	-210.70158999999967	1173.89159	-100.81795	-264.98941000000013	1230.8843700000002	-157.82583999999997	-323.6235000000006	1291.7672900000005	-218.06880000000004	-378.34861999999976	1346.8649899999996	-272.15916	-498.1566699999994	1437.62512	-325.53405	-279.73645999999917	1277.2235599999997	-216.39614999999998	-208.1847200000002	1294.56465	-319.89845	-148.77976000000035	1048.7540499999998	-400.33045	-43.505010000000766	1033.0612999999998	-637.11958	-27.18333999999959	1067.2348500000003	-649.8747199999999	-31.615719999999783	1090.0758699999997	-678.4211600000001	-34.86949000000004	1102.2208100000003	-700.7015000000001	-37.72494999999981	1109.12762	-721.32929	-23.91899999999987	1057.3211199999998	-659.12697	-4.852340000000368	1078.56128	-703.93239	-4.220709999999599	1091.0187	-737.9088199999999	-12.107840000000579	1098.9039700000003	-755.1345900000001	-24.221010000000206	1105.5253700000003	-766.7634599999999	-25.637700000000223	1046.2405999999999	-664.2296100000001	-7.966690000000199	1060.9648200000001	-710.69069	-7.581850000000486	1073.02449	-748.29718	-17.24348000000009	1081.80173	-769.3344500000001	-30.568519999999808	1088.6889200000003	-782.1825100000001	-27.20748999999978	1037.87343	-666.6874800000002	-12.350110000000313	1043.81542	-710.44842	-12.35511999999926	1052.7356799999998	-743.6963800000001	-21.85534000000007	1060.3571099999997	-764.23809	-34.46991999999955	1066.43243	-776.43677	-30.60123999999996	1027.5890000000004	-668.25206	-18.620589999999538	1026.7163500000001	-709.3556600000002	-19.221480000000156	1031.3513100000002	-736.5218500000001	-26.43970999999965	1035.69718	-751.76746	-37.78033999999934	1040.3806899999997	-762.7245299999998	-329.4179700000004	1266.2050600000002	-178.2488	-406.57828000000063	1191.51063	-107.82500000000002	-273.7040699999998	1058.47785	-294.00650999999993	-117.77495999999974	1026.71031	-498.37566000000004	-118.95967999999993	1051.2109400000002	-529.9230400000001	-126.98250000000007	1048.44685	-565.75949	-136.02783999999974	1044.08378	-589.28916	-146.5269900000003	1038.3606899999997	-607.6842100000001	-132.0280900000007	1047.0855900000001	-527.3268499999999	-164.20041000000037	1058.9299799999994	-567.9083799999999	-183.58280999999988	1054.5296400000002	-598.15641	-188.66914999999972	1045.92128	-616.0767	-188.18187000000034	1034.83484	-630.31242	-140.17129000000023	1039.44102	-522.12901	-175.95672000000013	1046.86232	-558.89894	-198.07314999999926	1040.9977900000001	-591.0905800000003	-204.67332999999962	1030.1020400000002	-612.3196700000001	-204.36557999999968	1017.7235000000001	-627.7060099999999	-145.1630100000002	1033.85266	-517.3995299999999	-181.7412600000007	1035.9884000000002	-546.1839000000001	-201.94869000000017	1029.7774999999997	-573.35157	-208.80930999999964	1018.6838600000001	-593.3556999999998	-208.7541399999991	1006.7682300000001	-607.5985799999999	-149.51518000000033	1026.1643400000003	-510.94328000000013	-185.95777999999973	1023.77241	-533.30439	-203.4311399999997	1017.0736699999999	-553.5443100000002	-209.06029000000035	1008.1473499999998	-567.40258	-209.3710999999994	997.11174	-579.59771
